<svg width="177" height="37" viewBox="0 0 177 37" fill="none" xmlns="http://www.w3.org/2000/svg">
<g clip-path="url(#clip0_117_31)">
<path fill-rule="evenodd" clip-rule="evenodd" d="M79.3486 23.6109C75.7477 23.6109 74.2371 20.8345 74.2371 18.1307C74.2371 15.4269 75.7959 13.0664 79.39 13.0664C82.9839 13.0664 84.2703 16.133 84.2703 18.3215C84.2703 20.51 82.9499 23.6109 79.3486 23.6109ZM79.8348 8.42906C77.1954 8.42906 75.3097 9.66393 74.7815 10.0418C74.9269 9.40198 75.4962 4.33707 82.6165 4.33707H87.0152L88.6457 0.0717773H82.6919C74.8429 0.0717773 68.879 3.54235 68.879 15.7496C68.879 22.4515 71.8612 27.79 79.1937 27.79C86.1668 27.79 89.5874 22.9015 89.5874 18.1463C89.5874 11.2604 84.2912 8.42906 79.8348 8.42906ZM8.54992 13.1992H5.83328V4.64103H8.62875C10.6145 4.64103 13.8194 5.80842 13.8194 8.93822C13.8194 12.0947 10.6145 13.1992 8.54992 13.1992ZM9.01798 0.0717773H0.165039V27.3422H5.83328V17.7274H8.90112C14.6847 17.7274 19.5288 14.766 19.5288 8.92043C19.5288 3.0749 14.6847 0.0717773 9.01798 0.0717773ZM102.885 8.42906L110.115 27.3422H104.243L100.043 15.28H99.9705L95.7844 27.3422H89.9333L97.1631 8.42906H102.885ZM176.719 0.0717773L162.85 36.3479H157.198L171.065 0.0717773H176.719ZM60.7821 8.42906H65.4572V27.3422H59.9849V16.2618L54.6807 22.9211H53.1974L53.0738 22.7717L47.8516 16.3536V27.3422H42.3766V8.42906H47.0547L47.1749 8.56954L53.9722 16.4115L60.7821 8.42906ZM32.77 19.4573C32.77 22.0442 31.2667 23.8265 28.3547 23.8265C25.5381 23.8265 25.2991 22.2371 25.2991 21.6313C25.2991 20.2324 26.6211 19.2999 29.7684 19.0245C30.6352 18.9484 31.5207 18.9116 32.397 18.9116H32.77V19.4573ZM37.8944 17.3992C37.8944 17.0179 37.8883 16.6523 37.872 16.2983C37.6046 10.408 35.0082 7.98124 29.4046 7.98124C25.6105 7.98124 23.1435 9.46701 22.2755 10.0725L23.7533 13.9366C23.7533 13.9366 26.0598 12.0527 28.9746 12.0527C33.0985 12.0527 32.6909 15.323 32.6909 15.323C31.2805 15.3352 20.0582 14.7755 20.0582 21.7807C20.0582 25.6669 23.3993 27.79 27.1493 27.79C30.4852 27.79 32.2799 26.1803 32.8715 25.5552C32.8746 25.6405 32.9884 27.3419 32.9884 27.3419H38.087C38.087 27.3419 37.8944 25.7012 37.8944 23.1315V17.3992ZM144.198 23.6122C140.583 23.6122 138.586 20.663 138.586 17.8476C138.586 15.0325 140.627 12.0827 144.198 12.0827C147.77 12.0827 149.727 14.6476 149.727 17.8476C149.727 21.0476 147.814 23.6122 144.198 23.6122ZM144.884 7.98094C141.391 7.98094 139.285 9.81023 138.665 10.4626V8.42875H133.386V36.3341H138.858V25.4884C139.478 26.123 141.657 27.79 144.884 27.79C149.945 27.79 154.6 24.156 154.6 17.8476C154.6 11.2494 149.476 7.98094 144.884 7.98094ZM115.881 15.7711C116.035 14.5003 117.383 11.9444 120.708 11.9444C124.411 11.9444 125.01 14.7282 125.099 15.7711H115.881ZM120.708 7.98094C114.588 7.98094 110.432 12.2922 110.432 17.924C110.432 23.5554 114.639 27.79 120.901 27.79C127.163 27.79 129.833 23.5186 129.833 23.5186L125.845 20.9391C125.845 20.9391 124.483 23.6109 120.939 23.6109C117.29 23.6109 115.821 20.6182 115.821 19.4757H130.283C130.283 19.4757 130.362 18.6494 130.362 18.4086V17.7712C130.362 12.1929 126.827 7.98094 120.708 7.98094Z" fill="#009FA1"/>
</g>
<defs>
<clipPath id="clip0_117_31">
<rect width="176.885" height="36.5" fill="white"/>
</clipPath>
</defs>
</svg>
