<svg width="138" height="36" viewBox="0 0 138 36" fill="none" xmlns="http://www.w3.org/2000/svg">
<path d="M0.884766 0H35.8632L31.0831 8.28742H21.9016V35.6057H13.1439V8.28742H0.884766V0Z" fill="#009FA1"/>
<path d="M84.3247 8.28742C83.3324 8.28742 82.6223 8.90244 82.6223 9.94227V25.7116C82.6223 26.7523 83.3324 27.3196 84.3247 27.3196H102.452V35.6057H84.3247C77.9825 35.6057 73.8657 31.7715 73.8657 25.7116V9.94227C73.8657 3.93092 77.9825 0 84.3247 0H104.629L99.8508 8.28742H84.3247Z" fill="#009FA1"/>
<path d="M59.736 27.5773H47.0861C45.2813 27.5773 43.9615 26.2581 43.9615 24.4485C43.9615 22.5922 45.2813 21.2725 47.0861 21.2725H59.736V27.5773ZM58.0796 0H41.7042L36.9207 8.28742H58.0796C59.1219 8.28742 59.736 8.90244 59.736 9.9439V13.7323H46.0102C39.7143 13.7323 35.0762 18.3705 35.0762 24.6684C35.0762 30.9668 39.7143 35.6057 46.0102 35.6057H68.493V9.9439C68.493 3.93092 64.3763 0 58.0796 0Z" fill="#009FA1"/>
<path d="M116.819 8.28742C115.826 8.28742 115.115 8.90244 115.115 9.94227V25.7116C115.115 26.7523 115.826 27.3196 116.819 27.3196H134.946V35.6057H116.819C110.478 35.6057 106.359 31.7715 106.359 25.7116V9.94227C106.359 3.93092 110.478 0 116.819 0H137.126L132.344 8.28742H116.819Z" fill="#009FA1"/>
</svg>
