<svg width="90" height="34" viewBox="0 0 90 34" fill="#009FA1" xmlns="http://www.w3.org/2000/svg">
<g clip-path="url(#clip0_415_20)">
<path d="M50.7226 8.17873H48.7631C48.2462 8.17873 47.7505 8.38263 47.3848 8.74563C47.0191 9.10863 46.8134 9.60103 46.8129 10.1146V16.0551C46.8129 16.5687 46.6077 17.0613 46.2424 17.4246C45.877 17.788 45.3815 17.9924 44.8645 17.9928H39.2254C38.9694 17.9926 38.7158 18.0425 38.4792 18.1397C38.2426 18.2369 38.0276 18.3794 37.8465 18.5592C37.6654 18.739 37.5217 18.9525 37.4236 19.1875C37.3256 19.4225 37.2752 19.6744 37.2752 19.9287V20.8654C37.2749 21.1199 37.3252 21.372 37.4231 21.6072C37.521 21.8424 37.6647 22.0561 37.8458 22.2361C38.027 22.4161 38.2421 22.5588 38.4788 22.6561C38.7155 22.7534 38.9692 22.8033 39.2254 22.8031H44.8645C45.3813 22.8031 45.8769 23.0071 46.2422 23.3701C46.6076 23.7332 46.8129 24.2256 46.8129 24.739V31.4022C46.8134 31.9158 47.0191 32.4082 47.3848 32.7712C47.7505 33.1342 48.2462 33.3381 48.7631 33.3381H50.7226C51.2394 33.3381 51.735 33.1341 52.1004 32.7711C52.4657 32.408 52.671 31.9156 52.671 31.4022V10.1146C52.671 9.6012 52.4657 9.1088 52.1004 8.74574C51.735 8.38269 51.2394 8.17873 50.7226 8.17873ZM35.0485 10.0796V31.3653C35.0485 31.8792 34.843 32.3721 34.4772 32.7355C34.1115 33.0989 33.6155 33.3031 33.0982 33.3031H31.1387C30.6218 33.3026 30.1262 33.0982 29.7609 32.7349C29.3956 32.3715 29.1903 31.8789 29.1903 31.3653V23.3157C29.1273 23.7434 29.0481 24.1601 28.9528 24.5657C28.9417 24.6155 28.9306 24.6653 28.9176 24.715C28.8786 24.8736 28.8378 25.0322 28.7951 25.1889L28.7673 25.2884C28.5953 25.8936 28.3814 26.4862 28.1271 27.0621C27.6011 28.2824 26.8749 29.4076 25.9783 30.3918C24.9248 31.5383 23.6375 32.4484 22.2022 33.0615C20.7187 33.6931 19.1196 34.0127 17.5057 34C16.0243 34.0116 14.5543 33.7419 13.1747 33.2054C11.8508 32.6888 10.6407 31.921 9.61197 30.945C8.55259 29.9319 7.69074 28.733 7.06981 27.4087C6.46236 26.1206 6.05387 24.7488 5.85811 23.3396V31.3893C5.85811 31.9029 5.65289 32.3955 5.28756 32.7588C4.92222 33.1222 4.42665 33.3265 3.90974 33.327H1.95023C1.433 33.327 0.936948 33.1229 0.571209 32.7595C0.20547 32.3961 0 31.9032 0 31.3893V10.1036C0 9.58965 0.20547 9.09678 0.571209 8.73338C0.936948 8.36998 1.433 8.16583 1.95023 8.16583H3.90974C4.42665 8.16631 4.92222 8.37068 5.28756 8.73403C5.65289 9.09737 5.85811 9.58997 5.85811 10.1036V18.0942H5.8711C5.93048 17.6948 6.0047 17.3033 6.09377 16.9198V16.9032L6.11047 16.8387C6.3529 15.7571 6.73916 14.7123 7.25908 13.732L7.29805 13.6638C7.77314 12.7466 8.36839 11.8961 9.06828 11.1342C10.1219 9.98403 11.4106 9.07068 12.8481 8.45529C15.6792 7.27772 18.8546 7.21182 21.7327 8.27092C23.0173 8.75488 24.1997 9.47269 25.2194 10.3875C26.2633 11.3363 27.1319 12.4595 27.7857 13.7062C28.4583 14.9785 28.9135 16.3529 29.1328 17.7734C29.1477 17.8675 29.1644 17.9578 29.1774 18.0555L29.1996 18.0703V10.0796C29.1996 9.566 29.4048 9.07341 29.7702 8.71006C30.1355 8.34672 30.6311 8.14235 31.148 8.14186H33.1075C33.6231 8.14429 34.1168 8.34952 34.4805 8.71266C34.8443 9.07579 35.0485 9.56728 35.0485 10.0796ZM23.3582 20.7215C23.3582 18.2215 22.8337 16.2413 21.7847 14.7811C21.3146 14.0874 20.6756 13.523 19.9272 13.1404C19.1788 12.7578 18.3452 12.5693 17.5038 12.5926C16.5716 12.5763 15.6525 12.8121 14.8447 13.2748C14.2203 13.6532 13.6809 14.1553 13.2601 14.7497C12.2135 16.2149 11.6902 18.1975 11.6902 20.6976C11.6902 23.1977 12.2148 25.1944 13.2638 26.6878C14.3128 28.1788 15.741 28.9242 17.5483 28.9242C18.4789 28.9424 19.3964 28.705 20.2 28.2384C20.8314 27.8446 21.3735 27.3247 21.7921 26.7118C22.8374 25.2208 23.3607 23.2241 23.3619 20.7215H23.3582ZM88.0516 8.78878e-07H65.1759C64.9197 -0.000241653 64.666 0.0497141 64.4293 0.147009C64.1925 0.244304 63.9774 0.387028 63.7963 0.567013C63.6152 0.746998 63.4715 0.96071 63.3736 1.19592C63.2757 1.43113 63.2254 1.68321 63.2256 1.93775V3.30763C63.2256 3.56201 63.2761 3.8139 63.3741 4.04889C63.4722 4.28389 63.6158 4.49738 63.797 4.67717C63.9781 4.85696 64.1931 4.99952 64.4297 5.0967C64.6663 5.19388 64.9198 5.24378 65.1759 5.24353H71.5888C71.8457 5.24353 72.1 5.29396 72.3373 5.39191C72.5745 5.48987 72.7899 5.63343 72.9711 5.81434C73.1523 5.99526 73.2958 6.20996 73.3932 6.44612C73.4907 6.68229 73.5402 6.93526 73.539 7.1905V31.4022C73.539 31.9156 73.7443 32.408 74.1097 32.7711C74.4751 33.1341 74.9707 33.3381 75.4874 33.3381H77.7382C78.2551 33.3381 78.7509 33.1342 79.1166 32.7712C79.4823 32.4082 79.688 31.9158 79.6885 31.4022V7.1905C79.687 6.93457 79.7366 6.68088 79.8344 6.44412C79.9323 6.20737 80.0764 5.99223 80.2584 5.81117C80.4405 5.63011 80.6569 5.48672 80.8951 5.38928C81.1333 5.29185 81.3885 5.24231 81.6461 5.24353H88.0609C88.5754 5.24013 89.0676 5.03466 89.4302 4.67198C89.7928 4.30929 89.9963 3.81884 89.9963 3.30763V1.93775C89.9968 1.42463 89.7922 0.932313 89.4276 0.568968C89.063 0.205623 88.568 0.000978007 88.0516 8.78878e-07ZM59.0506 8.78878e-07H56.848C56.3307 8.78878e-07 55.8347 0.204156 55.4689 0.567554C55.1032 0.930952 54.8977 1.42383 54.8977 1.93775V31.4022C54.8982 31.9158 55.1039 32.4082 55.4696 32.7712C55.8353 33.1342 56.331 33.3381 56.848 33.3381H59.0506C59.5673 33.3381 60.0629 33.1341 60.4283 32.7711C60.7937 32.408 60.9989 31.9156 60.9989 31.4022V1.93775C60.9992 1.68337 60.9489 1.43143 60.8511 1.19634C60.7533 0.961256 60.6099 0.747626 60.4289 0.567666C60.248 0.387705 60.0331 0.244942 59.7966 0.147539C59.5601 0.0501354 59.3066 7.63513e-07 59.0506 8.78878e-07Z" />
</g>
<defs>
<clipPath id="clip0_415_20">
<rect width="90" height="34" fill="white"/>
</clipPath>
</defs>
</svg>
