<svg width="155" height="59" viewBox="0 0 155 59" fill="#4C4C4C" xmlns="http://www.w3.org/2000/svg">
<path d="M5.568 4.8C6.28267 4.8 6.928 4.96 7.504 5.28C8.09067 5.6 8.54933 6.04267 8.88 6.608C9.21067 7.17333 9.376 7.80267 9.376 8.496C9.376 9.552 9.01333 10.432 8.288 11.136C7.56267 11.84 6.656 12.192 5.568 12.192H3.264V16H1.424V4.8H5.568ZM5.472 10.448C5.77067 10.448 6.04267 10.4 6.288 10.304C6.544 10.208 6.76267 10.0747 6.944 9.904C7.12533 9.73333 7.264 9.52533 7.36 9.28C7.46667 9.03467 7.52 8.77333 7.52 8.496C7.52 8.12267 7.42933 7.792 7.248 7.504C7.07733 7.20533 6.83733 6.97067 6.528 6.8C6.21867 6.62933 5.86667 6.544 5.472 6.544H3.264V10.448H5.472ZM18.246 7.36H19.622V16H18.182L18.006 14.944C17.174 15.7867 16.134 16.208 14.886 16.208C13.5953 16.208 12.518 15.776 11.654 14.912C10.8007 14.048 10.374 12.9707 10.374 11.68C10.374 10.3787 10.8007 9.30133 11.654 8.448C12.518 7.584 13.5953 7.152 14.886 7.152C16.1553 7.152 17.206 7.57867 18.038 8.432L18.246 7.36ZM12.982 13.712C13.526 14.2453 14.2033 14.512 15.014 14.512C15.8353 14.512 16.5073 14.2453 17.03 13.712C17.5633 13.168 17.83 12.4907 17.83 11.68C17.83 10.8587 17.5633 10.1813 17.03 9.648C16.5073 9.11467 15.8353 8.848 15.014 8.848C14.4807 8.848 13.9953 8.97067 13.558 9.216C13.1313 9.46133 12.7953 9.80267 12.55 10.24C12.3047 10.6667 12.182 11.1467 12.182 11.68C12.182 12.4907 12.4487 13.168 12.982 13.712ZM26.9866 11.408C27.744 11.856 28.1226 12.5547 28.1226 13.504C28.1226 14.304 27.8026 14.9547 27.1626 15.456C26.5226 15.9573 25.7013 16.208 24.6986 16.208C23.728 16.208 22.9333 15.9573 22.3146 15.456C21.7066 14.944 21.376 14.2613 21.3226 13.408H22.9386C23.0026 13.7813 23.1893 14.0747 23.4986 14.288C23.808 14.5013 24.208 14.608 24.6986 14.608C25.2 14.608 25.6053 14.496 25.9146 14.272C26.224 14.0373 26.3786 13.7387 26.3786 13.376C26.3786 13.024 26.24 12.736 25.9626 12.512C25.696 12.288 25.3386 12.176 24.8906 12.176H23.7706V10.8H24.8906C25.296 10.8 25.616 10.7093 25.8506 10.528C26.0853 10.336 26.2026 10.08 26.2026 9.76C26.2026 9.41867 26.064 9.14667 25.7866 8.944C25.5093 8.74133 25.1413 8.64 24.6826 8.64C24.2666 8.64 23.92 8.736 23.6426 8.928C23.376 9.12 23.216 9.38667 23.1626 9.728H21.5466C21.5893 8.96 21.904 8.34133 22.4906 7.872C23.088 7.392 23.8346 7.152 24.7306 7.152C25.648 7.152 26.4 7.38667 26.9866 7.856C27.584 8.32533 27.8826 8.91733 27.8826 9.632C27.8826 10.4 27.584 10.992 26.9866 11.408ZM34.7009 7.152C35.5542 7.152 36.3222 7.34933 37.0049 7.744C37.6875 8.128 38.2209 8.66667 38.6049 9.36C38.9889 10.0533 39.1809 10.8267 39.1809 11.68C39.1809 12.9813 38.7542 14.064 37.9009 14.928C37.0582 15.7813 35.9915 16.208 34.7009 16.208C33.5915 16.208 32.6369 15.8613 31.8369 15.168V19.104H30.0609V7.36H31.2609L31.5969 8.416C32.4289 7.57333 33.4635 7.152 34.7009 7.152ZM32.5409 13.712C33.0742 14.2453 33.7462 14.512 34.5569 14.512C35.3782 14.512 36.0555 14.2453 36.5889 13.712C37.1222 13.168 37.3889 12.4907 37.3889 11.68C37.3889 10.8693 37.1222 10.1973 36.5889 9.664C36.0555 9.12 35.3835 8.848 34.5729 8.848C34.0395 8.848 33.5542 8.97067 33.1169 9.216C32.6795 9.46133 32.3382 9.80267 32.0929 10.24C31.8582 10.6667 31.7409 11.1467 31.7409 11.68C31.7409 12.4907 32.0075 13.168 32.5409 13.712ZM48.3241 7.36H49.7001V16H48.2601L48.0841 14.944C47.2521 15.7867 46.2121 16.208 44.9641 16.208C43.6735 16.208 42.5961 15.776 41.7321 14.912C40.8788 14.048 40.4521 12.9707 40.4521 11.68C40.4521 10.3787 40.8788 9.30133 41.7321 8.448C42.5961 7.584 43.6735 7.152 44.9641 7.152C46.2335 7.152 47.2841 7.57867 48.1161 8.432L48.3241 7.36ZM43.0601 13.712C43.6041 14.2453 44.2815 14.512 45.0921 14.512C45.9135 14.512 46.5855 14.2453 47.1081 13.712C47.6415 13.168 47.9081 12.4907 47.9081 11.68C47.9081 10.8587 47.6415 10.1813 47.1081 9.648C46.5855 9.11467 45.9135 8.848 45.0921 8.848C44.5588 8.848 44.0735 8.97067 43.6361 9.216C43.2095 9.46133 42.8735 9.80267 42.6281 10.24C42.3828 10.6667 42.2601 11.1467 42.2601 11.68C42.2601 12.4907 42.5268 13.168 43.0601 13.712ZM56.6328 7.776C57.8808 7.776 58.8941 8.16 59.6728 8.928C60.4621 9.696 60.8568 10.6933 60.8568 11.92C60.8568 13.1893 60.4408 14.224 59.6088 15.024C58.7874 15.8133 57.7101 16.208 56.3768 16.208C54.9688 16.208 53.8594 15.7707 53.0488 14.896C52.2488 14.0107 51.8488 12.8 51.8488 11.264C51.8488 9.16267 52.2488 7.568 53.0488 6.48C53.8594 5.38133 55.2088 4.60267 57.0968 4.144L59.8008 3.488V5.248L57.1288 5.888C55.2834 6.32533 54.1901 7.29067 53.8488 8.784C54.5954 8.112 55.5234 7.776 56.6328 7.776ZM56.3768 14.528C57.1448 14.528 57.7794 14.2827 58.2808 13.792C58.7928 13.2907 59.0487 12.6667 59.0487 11.92C59.0487 11.4187 58.9314 10.9707 58.6968 10.576C58.4621 10.1707 58.1421 9.856 57.7368 9.632C57.3314 9.39733 56.8781 9.28 56.3768 9.28C55.8754 9.28 55.4168 9.39733 55.0008 9.632C54.5954 9.856 54.2754 10.1707 54.0408 10.576C53.8168 10.9707 53.7048 11.4187 53.7048 11.92C53.7048 12.6667 53.9554 13.2907 54.4568 13.792C54.9688 14.2827 55.6088 14.528 56.3768 14.528ZM70.044 14.928C69.1693 15.7813 68.0707 16.208 66.748 16.208C65.4253 16.208 64.3213 15.7813 63.436 14.928C62.5613 14.064 62.124 12.9813 62.124 11.68C62.124 10.8267 62.3213 10.0533 62.716 9.36C63.1213 8.66667 63.676 8.128 64.38 7.744C65.0947 7.34933 65.884 7.152 66.748 7.152C67.612 7.152 68.396 7.34933 69.1 7.744C69.8147 8.128 70.3693 8.66667 70.764 9.36C71.1693 10.0533 71.372 10.8267 71.372 11.68C71.372 12.9813 70.9293 14.064 70.044 14.928ZM66.748 14.512C67.292 14.512 67.7773 14.3947 68.204 14.16C68.6307 13.9147 68.9613 13.5787 69.196 13.152C69.4413 12.7147 69.564 12.224 69.564 11.68C69.564 10.8587 69.2973 10.1813 68.764 9.648C68.2413 9.11467 67.5693 8.848 66.748 8.848C65.9267 8.848 65.2493 9.11467 64.716 9.648C64.1933 10.1813 63.932 10.8587 63.932 11.68C63.932 12.5013 64.1933 13.1787 64.716 13.712C65.2493 14.2453 65.9267 14.512 66.748 14.512ZM79.846 7.36V8.96H76.806V16H75.078V8.96H72.022V7.36H79.846ZM86.8446 16L84.2526 12.32H83.1806V16H81.4046V7.36H83.1806V10.704H84.2686L86.6206 7.36H88.7166L85.7886 11.504L89.0366 16H86.8446ZM97.2148 7.36H98.5908V16H97.1508L96.9748 14.944C96.1428 15.7867 95.1028 16.208 93.8548 16.208C92.5641 16.208 91.4868 15.776 90.6228 14.912C89.7694 14.048 89.3428 12.9707 89.3428 11.68C89.3428 10.3787 89.7694 9.30133 90.6228 8.448C91.4868 7.584 92.5641 7.152 93.8548 7.152C95.1241 7.152 96.1748 7.57867 97.0068 8.432L97.2148 7.36ZM91.9508 13.712C92.4948 14.2453 93.1721 14.512 93.9828 14.512C94.8041 14.512 95.4761 14.2453 95.9988 13.712C96.5321 13.168 96.7987 12.4907 96.7987 11.68C96.7987 10.8587 96.5321 10.1813 95.9988 9.648C95.4761 9.11467 94.8041 8.848 93.9828 8.848C93.4494 8.848 92.9641 8.97067 92.5268 9.216C92.1001 9.46133 91.7641 9.80267 91.5188 10.24C91.2734 10.6667 91.1508 11.1467 91.1508 11.68C91.1508 12.4907 91.4174 13.168 91.9508 13.712ZM109.043 16.208C107.763 16.208 106.685 15.776 105.811 14.912C104.947 14.0373 104.515 12.96 104.515 11.68C104.515 10.3893 104.947 9.312 105.811 8.448C106.685 7.584 107.768 7.152 109.059 7.152C110.115 7.152 111.032 7.45067 111.811 8.048C112.589 8.64533 113.096 9.44 113.331 10.432H111.571C111.347 9.94133 111.011 9.55733 110.563 9.28C110.115 8.992 109.608 8.848 109.043 8.848C108.541 8.848 108.083 8.97067 107.667 9.216C107.251 9.46133 106.92 9.80267 106.675 10.24C106.44 10.6667 106.323 11.1467 106.323 11.68C106.323 12.48 106.584 13.152 107.107 13.696C107.629 14.24 108.275 14.512 109.043 14.512C109.608 14.512 110.109 14.368 110.547 14.08C110.995 13.792 111.336 13.3813 111.571 12.848H113.363C113.117 13.8613 112.6 14.6773 111.811 15.296C111.032 15.904 110.109 16.208 109.043 16.208ZM122.34 7.36H123.716V16H122.276L122.1 14.944C121.268 15.7867 120.228 16.208 118.98 16.208C117.689 16.208 116.612 15.776 115.748 14.912C114.894 14.048 114.468 12.9707 114.468 11.68C114.468 10.3787 114.894 9.30133 115.748 8.448C116.612 7.584 117.689 7.152 118.98 7.152C120.249 7.152 121.3 7.57867 122.132 8.432L122.34 7.36ZM117.076 13.712C117.62 14.2453 118.297 14.512 119.108 14.512C119.929 14.512 120.601 14.2453 121.124 13.712C121.657 13.168 121.924 12.4907 121.924 11.68C121.924 10.8587 121.657 10.1813 121.124 9.648C120.601 9.11467 119.929 8.848 119.108 8.848C118.574 8.848 118.089 8.97067 117.652 9.216C117.225 9.46133 116.889 9.80267 116.644 10.24C116.398 10.6667 116.276 11.1467 116.276 11.68C116.276 12.4907 116.542 13.168 117.076 13.712ZM132.12 4.512V5.84H127.832V4.512H132.12ZM132.584 7.36H133.576V16H131.88V10.512L127.272 16H126.248V7.36H127.96V12.8L132.584 7.36ZM142.94 7.36V8.96H139.9V16H138.172V8.96H135.116V7.36H142.94ZM151.48 7.36H152.856V16H151.416L151.24 14.944C150.408 15.7867 149.368 16.208 148.12 16.208C146.83 16.208 145.752 15.776 144.888 14.912C144.035 14.048 143.608 12.9707 143.608 11.68C143.608 10.3787 144.035 9.30133 144.888 8.448C145.752 7.584 146.83 7.152 148.12 7.152C149.39 7.152 150.44 7.57867 151.272 8.432L151.48 7.36ZM146.216 13.712C146.76 14.2453 147.438 14.512 148.248 14.512C149.07 14.512 149.742 14.2453 150.264 13.712C150.798 13.168 151.064 12.4907 151.064 11.68C151.064 10.8587 150.798 10.1813 150.264 9.648C149.742 9.11467 149.07 8.848 148.248 8.848C147.715 8.848 147.23 8.97067 146.792 9.216C146.366 9.46133 146.03 9.80267 145.784 10.24C145.539 10.6667 145.416 11.1467 145.416 11.68C145.416 12.4907 145.683 13.168 146.216 13.712Z" />
<path d="M57.2508 41.0262C58.08 37.6399 58.9092 34.1949 59.7383 30.6913C61.581 30.4634 63.4236 30.2485 65.2663 30.0466C63.4236 36.4286 61.581 42.5892 59.7383 48.5283C58.126 48.867 56.5137 49.2121 54.9014 49.5638C53.9801 46.6528 53.0588 43.6702 52.1375 40.616C51.2161 44.0349 50.2948 47.4343 49.3735 50.8141C47.7554 51.1918 46.1402 51.5663 44.5279 51.9375C42.6853 46.096 40.8426 40.1243 39 34.0223C40.8426 33.7097 42.6853 33.3939 44.5279 33.0748C45.3571 36.37 46.1863 39.6294 47.0155 42.8529C47.9138 39.3298 48.8149 35.7774 49.719 32.1956C51.3255 31.9352 52.9379 31.6779 54.5559 31.4239C55.4484 34.6931 56.3467 37.8939 57.2508 41.0262Z" />
<path d="M81.4354 45.3536C79.6821 46.5258 77.5141 46.9263 74.9401 46.8189C72.3576 46.9166 70.1896 46.4086 68.4448 45.0996C66.6655 43.7028 65.7845 41.7589 65.7845 39.2386C65.7845 36.65 66.6655 34.2958 68.4448 32.225C70.2155 30.1345 72.3835 29.0209 74.9401 28.9819C77.4968 29.0112 79.6561 30.1443 81.4354 32.2933C83.2061 34.4424 84.0958 36.8942 84.0958 39.5708C84.0958 42.1594 83.2061 44.0837 81.4354 45.3536ZM70.9669 38.8577C70.9669 40.0299 71.347 40.9481 72.1071 41.6319C72.8672 42.3059 73.8086 42.6282 74.9401 42.638C76.063 42.6673 77.0131 42.3743 77.7732 41.7198C78.5333 41.0751 78.9133 40.1666 78.9133 38.9847C78.9133 37.7831 78.5333 36.7379 77.7732 35.9076C77.0131 35.0675 76.063 34.628 74.9401 34.6182C73.8086 34.6084 72.8672 35.0285 72.1071 35.8392C71.347 36.65 70.9669 37.6659 70.9669 38.8577Z" />
<path d="M101.811 51.4588C100.058 53.0706 97.8983 53.3148 95.3157 52.2989C92.7331 51.2928 90.5738 49.5735 88.8204 47.1998C87.0497 44.9336 86.1601 42.5501 86.1601 39.9029C86.1601 37.1775 87.0497 34.921 88.8204 33.1432C90.5911 31.3458 92.759 30.6327 95.3157 31.043C97.8724 31.4728 100.04 32.8892 101.811 35.3118C103.582 37.7734 104.471 40.6062 104.471 43.8102C104.471 47.1021 103.582 49.7005 101.811 51.4588ZM91.3425 40.909C91.3425 42.2375 91.7226 43.4097 92.4827 44.4452C93.2427 45.4904 94.1842 46.1839 95.3157 46.5063C96.4472 46.8384 97.3887 46.6626 98.1488 45.9593C98.9089 45.2364 99.2889 44.1521 99.2889 42.6869C99.2889 41.2411 98.9089 39.9713 98.1488 38.9065C97.3887 37.8515 96.4472 37.2263 95.3157 37.0114C94.1842 36.8063 93.2427 37.0701 92.4827 37.8124C91.7226 38.5353 91.3425 39.5708 91.3425 40.909Z" />
<path d="M117.721 33.7586C119.984 33.7879 121.927 34.8624 123.56 37.0114C125.175 39.1605 125.978 41.8956 125.978 45.2755C125.978 48.7921 125.175 51.9179 123.56 54.6238C121.953 57.4371 120.001 58.9512 117.721 59C115.493 58.8437 113.774 57.4859 112.573 55.122C112.573 55.9425 112.573 56.7663 112.573 57.5934C110.846 57.1701 109.118 56.6979 107.391 56.1769C107.397 45.3341 107.399 35.0838 107.399 25.4262C109.127 25.6541 110.854 25.8658 112.582 26.0611C112.582 29.2977 112.582 32.6287 112.582 36.0541C113.782 34.4326 115.501 33.6804 117.721 33.7586ZM113.713 49.5149C114.499 50.6969 115.493 51.3416 116.685 51.4198C117.885 51.4784 118.861 50.9411 119.621 49.8373C120.407 48.7432 120.796 47.3073 120.796 45.5197C120.796 43.7809 120.407 42.4036 119.621 41.4072C118.861 40.4011 117.885 39.8931 116.685 39.8443C115.493 39.7857 114.499 40.2155 113.713 41.1435C112.953 42.0714 112.573 43.3902 112.573 45.1192C112.573 46.8872 112.953 48.3525 113.713 49.5149Z" />
<path d="M134.098 55.6495C132.37 56.0597 130.643 56.457 128.915 56.8412C128.915 45.5164 128.915 34.7615 128.915 24.5763C130.643 24.3875 132.37 24.1954 134.098 24C134.098 34.2503 134.098 44.8001 134.098 55.6495Z" />
<path d="M154.793 45.0117C150.704 45.0768 146.616 45.3373 142.528 45.7932C143.098 47.6199 144.48 48.3427 146.674 48.0106C148.073 47.825 149.178 47.2291 149.982 46.2132C151.369 46.9491 152.754 47.6752 154.136 48.3916C152.452 50.8532 149.938 52.4943 146.604 53.2171C143.72 53.9009 141.396 53.4223 139.625 51.6933C137.898 49.8861 137.034 47.2975 137.034 44.0154C137.034 40.8113 137.881 38.0469 139.591 35.7318C141.318 33.446 143.53 32.2054 146.224 32.0491C148.729 31.9807 150.82 33.0943 152.478 35.3215C154.154 37.5292 155 40.108 155 42.9311C155 43.693 154.922 44.3865 154.793 45.0117ZM142.424 41.1825C144.9 40.9807 147.376 40.8341 149.852 40.743C149.343 38.6525 148.125 37.5878 146.19 37.6464C144.186 37.7636 142.925 38.9553 142.424 41.1825Z" />
</svg>
