<svg width="44" height="57" viewBox="0 0 120 159" fill="none" xmlns="http://www.w3.org/2000/svg">
<g clip-path="url(#clip0_277_5414)">
<path d="M120 0H0V27.5323H8.54881V8.6138H111.451V22.764L120 15.9535V0Z" fill="#C947CB"/>
<path d="M0.0405273 132.403L8.54906 125.727V131.771C8.54906 136.441 12.3057 140.226 16.9396 140.226H60.0003V148.84H16.9396C8.83534 148.84 2.06036 143.105 0.39324 135.443L0.389234 135.425C0.271195 134.883 0.0405273 133.823 0.0405273 132.403Z" fill="#C947CB"/>
<path d="M60 158.769V148.927C62.8298 147.657 65.377 146.594 68.2842 145.381L68.2858 145.38C69.9332 144.692 71.6962 143.957 73.6918 143.108C80.579 140.178 87.4076 140.103 91.822 140.103H102.661C107.295 140.103 111.051 136.318 111.051 131.648V122.863H119.6V131.648C119.6 141.075 112.016 148.716 102.661 148.716H89.3876C85.1067 148.814 82.2277 149.065 77.9598 150.868C73.6918 152.672 68.2992 155.039 60 158.769Z" fill="#C947CB"/>
<path d="M67.1236 68.6748L67.0942 68.7V33.9258H75.5555V51.2423L98.6909 32.8411V44.0133L98.6668 44.0325V67.1049H90.2054V50.7624L67.1236 69.1209V68.6748Z" fill="#C947CB"/>
<path d="M67.1558 87.6823V77.8562H98.7547V87.6823H87.6096V114.353H79.1261V87.6823H67.1558Z" fill="#C947CB"/>
<path d="M20.8314 114.36L20.8018 114.385V79.6107H29.2631V96.9274L52.3987 78.5261V89.6983L52.3745 89.7176V114.385H43.9132V96.4474L20.8314 114.806V114.36Z" fill="#C947CB"/>
<path fill-rule="evenodd" clip-rule="evenodd" d="M29.0678 34.2012L42.0553 34.2014C52.9001 34.2014 59.4739 41.278 59.4738 50.3824C59.4738 58.4264 53.7936 63.1364 45.4261 66.602C37.9273 69.7078 37.8777 69.7272 35.7268 70.5685L35.7258 70.5689L35.1601 70.7903V63.5745C34.0548 64.026 32.6734 64.5254 31.0942 64.9605C30.468 65.1331 29.7984 65.2702 29.0678 65.3743C25.911 65.8242 22.5277 65.1947 19.2421 63.098C14.4913 59.6176 12.459 54.8463 12.459 50.4833C12.459 41.0541 19.7097 34.2012 29.0678 34.2012ZM35.1662 60.4178C37.6042 59.4023 41.5028 57.7799 43.8713 56.8018C44.5606 56.5171 45.1888 56.1877 45.756 55.8801C46.4154 55.5226 46.9926 55.1473 47.4881 54.7487C49.0081 53.5263 49.7597 52.086 49.7597 50.2723C49.7597 48.3316 48.6525 44.195 43.5627 44.195L28.3415 44.1948C25.4184 44.1948 24.301 45.173 23.2395 46.7129C21.1649 49.7226 22.2568 53.2257 24.811 55.0398C25.6 55.6002 26.449 55.9151 27.3196 56.0069C29.4375 56.2305 32.7795 55.0712 35.1662 54.0819V60.4178Z" fill="#C947CB"/>
</g>
<defs>
<clipPath id="clip0_277_5414">
<rect width="120" height="159" fill="white"/>
</clipPath>
</defs>
</svg>
