<svg width="105" height="15" viewBox="0 0 312 39" fill="none" xmlns="http://www.w3.org/2000/svg">
<path d="M259.401 29.7432L260.673 25.0627H279.64L282.182 15.7017H263.215L264.487 11.0212H278.713L281.253 1.66016L252.797 1.66026L242.633 39.1042H280.565L283.107 29.7432H259.401Z" fill="black"/>
<path d="M228.749 29.7431L236.371 1.66016H222.145L211.98 39.1041H240.091L242.633 29.7431H228.749Z" fill="black"/>
<path d="M220.675 1.66016L206.944 1.66026L195.843 17.1059L192.224 1.66026H178L185.071 29.7432L182.06 39.1042H196.287L198.828 29.7432L220.675 1.66016Z" fill="black"/>
<path fill-rule="evenodd" clip-rule="evenodd" d="M142.836 1.66406H181.472L183.169 11.0251H180.375L179.37 6.95556L178.156 11.0251H166.375L158.75 39.108L144.526 39.1081L152.151 11.0251H140.297L142.836 1.66406Z" fill="black"/>
<path d="M128.481 11.0237L141.284 11.0236C141.284 11.0236 141.692 0.726562 123.56 0.726562C109.618 0.726562 103.431 2.72976 101.181 11.0237C97.8763 23.1953 124.525 20.717 122.919 27.5435C122.607 28.8634 121.934 30.4477 115.968 30.4477C111.054 30.4477 109.808 27.4054 109.808 27.4054H95.5834C94.4734 31.4938 95.1258 40.0427 113.858 40.0427C134.311 40.0427 137.052 32.788 138.322 28.1075C142.036 14.417 114.574 15.0816 115.684 11.0003C116.116 9.40886 116.376 8.68336 122.004 8.68336C126.095 8.68336 127.723 10.0899 128.481 11.0237Z" fill="black"/>
<path d="M105.506 1.66016L66.8674 1.66026L64.3281 11.0213L76.1821 11.0212L68.5572 39.1042H82.7814L90.4063 11.0212H102.964L105.506 1.66016Z" fill="black"/>
<path d="M41.1253 29.7432L42.3949 25.0627H61.3621L63.9037 15.7017H44.9365L46.2062 11.0212H60.4304L62.9697 1.66016L34.5236 1.66026L24.3594 39.1042H62.2938L64.8354 29.7432H41.1253Z" fill="black"/>
<path d="M15.6652 1.36328L10.1501 21.7211C8.73966 27.1271 7.51226 29.6686 3.37476 29.5048C3.13773 29.5071 2.90305 29.4743 2.67775 29.4065L0 39.7106L1.47147 39.7691C9.46484 40.0897 14.3674 38.4305 18.0919 34.8686C21.5957 31.5782 22.7574 27.1411 24.3368 21.0424L29.8284 1.36328H15.6652Z" fill="black"/>
<path d="M297.901 1.66406H286.082L283.566 11.0251H295.387L297.901 1.66406Z" fill="#FB0732"/>
<path d="M303.701 6.34448H294.867L293.609 11.025H302.443L303.701 6.34448Z" fill="#FB0732"/>
<path d="M311.999 1.66406H304.959L303.701 6.34456H310.741L311.999 1.66406Z" fill="#FB0732"/>
<path d="M299.913 20.3861H292.872L291.614 25.0666H298.655L299.913 20.3861Z" fill="#FB0732"/>
<path d="M294.124 15.7056H287.083L284.57 25.0666H291.61L294.124 15.7056Z" fill="#FB0732"/>
</svg>
