<svg width="90" height="30" viewBox="0 0 106 36" fill="none" xmlns="http://www.w3.org/2000/svg">
<g clip-path="url(#clip0_277_5389)">
<mask id="mask0_277_5389" style="mask-type:luminance" maskUnits="userSpaceOnUse" x="0" y="0" width="106" height="36">
<path d="M0 0H106V36H0V0Z" fill="white"/>
</mask>
<g mask="url(#mask0_277_5389)">
<path d="M14.5485 17.3411L22.6225 29.0001H18.1023L11.1506 19.0557H7.81503V29.0001H3.85597V10.5764H0.863281L2.85841 6.8667H7.81503V15.6266H11.1506L17.7594 6.8667H22.2485L14.5485 17.3411ZM21.4068 21.0196C21.4068 19.2947 21.8016 17.7879 22.5914 16.4994C23.3603 15.294 24.4098 14.3692 25.7399 13.725C27.07 13.0807 28.504 12.7586 30.0419 12.7586C31.6214 12.7586 33.045 13.0703 34.3127 13.6938C35.6428 14.338 36.6923 15.294 37.4612 16.5618C38.2302 17.8087 38.6147 19.2947 38.6147 21.0196C38.6147 22.7654 38.2302 24.2721 37.4612 25.5398C36.6923 26.7868 35.6428 27.7532 34.3127 28.439C33.0034 29.104 31.5798 29.4365 30.0419 29.4365C28.5248 29.4365 27.1012 29.104 25.7711 28.439C24.4202 27.7739 23.3499 26.8075 22.5602 25.5398C21.7912 24.2513 21.4068 22.7446 21.4068 21.0196ZM88.6485 13.2574H92.1712V15.4083C92.7115 14.577 93.4285 13.9432 94.3222 13.5067C95.2366 13.0495 96.4108 12.8209 97.8448 12.8209C99.3204 12.8209 100.63 13.1534 101.773 13.8185C102.874 14.5043 103.726 15.4811 104.329 16.7488C104.953 17.9958 105.264 19.4298 105.264 21.0508C105.264 22.6926 104.953 24.1474 104.329 25.4151C103.726 26.6621 102.874 27.6285 101.773 28.3143C101.253 28.6676 100.64 28.9274 99.9334 29.0936C99.2476 29.2807 98.5514 29.3742 97.8448 29.3742C96.6186 29.3742 95.7042 29.2807 95.1015 29.0936C93.8546 28.7195 92.9713 28.0961 92.4517 27.2232V34.5802H88.6485V13.2574ZM40.641 13.2574H44.413V19.2427H50.866V13.2574H54.6068V29.0001H50.866V22.3601H44.413V29.0001H40.641V13.2574ZM56.259 13.2574H70.7548V16.25H65.3929V29.0001H61.5586V16.25H56.259V13.2574ZM75.9608 13.2574C77.374 17.1229 78.6626 20.9469 79.8264 24.7293C80.9278 20.9884 82.1748 17.1645 83.5672 13.2574H87.3704L81.5721 29.3118C81.0941 30.6211 80.6369 31.6291 80.2005 32.3357C79.7225 33.0423 79.1302 33.5722 78.4236 33.9256C77.7377 34.2996 76.8233 34.4867 75.6803 34.4867C75.036 34.4867 74.6827 34.4763 74.6204 34.4555L73.3422 31.4628C73.7371 31.546 74.2255 31.5875 74.8074 31.5875C75.514 31.5875 76.0855 31.4836 76.522 31.2758C76.9168 31.1095 77.2182 30.8809 77.426 30.59C77.6338 30.3198 77.8105 29.9769 77.9559 29.5612L71.9706 13.2574H75.9608ZM25.2411 20.9884C25.2411 22.7134 25.6568 24.0331 26.4881 24.9475C27.3194 25.8412 28.4728 26.288 29.9484 26.288C31.4447 26.288 32.6085 25.8412 33.4398 24.9475C34.2919 24.0331 34.718 22.7134 34.718 20.9884C34.718 19.3051 34.3023 18.0373 33.471 17.1852C32.6397 16.3124 31.4655 15.876 29.9484 15.876C28.452 15.876 27.2882 16.3124 26.4569 17.1852C25.6464 18.0373 25.2411 19.3051 25.2411 20.9884ZM92.3582 21.0196C92.3998 22.5783 92.8154 23.8253 93.6052 24.7605C94.3949 25.6957 95.5068 26.1633 96.9408 26.1633C98.3748 26.1633 99.4762 25.6957 100.245 24.7605C101.035 23.8253 101.44 22.5783 101.461 21.0196C101.44 19.4817 101.035 18.2555 100.245 17.3411C99.4762 16.4059 98.3748 15.9383 96.9408 15.9383C95.5068 15.9383 94.3949 16.3955 93.6052 17.3099C92.8154 18.2244 92.3998 19.4609 92.3582 21.0196Z" fill="#222222"/>
</g>
</g>
<defs>
<clipPath id="clip0_277_5389">
<rect width="106" height="36" fill="white"/>
</clipPath>
</defs>
</svg>
