<svg xmlns="http://www.w3.org/2000/svg" preserveAspectRatio="xMidYMid" width="108" height="17" viewBox="0 0 191 21" id="logo_home_tab" x="3166" y="2728">
<path fill="#FF6720" d="M19.15,14a.69.69,0,0,1-.68.68.68.68,0,0,1-.61-.38L12,2.44A4.39,4.39,0,0,0,8.07,0H2.19A2.19,2.19,0,0,0,0,2.19V19.32H5.78V5.39a.76.76,0,0,1,.75-.75.75.75,0,0,1,.67.42L13,16.88A4.39,4.39,0,0,0,17,19.32h5.77a2.19,2.19,0,0,0,2.19-2.19V0H19.15Z"/><path fill="#FF6720" d="M158.49,0V14a.68.68,0,0,1-.68.69.69.69,0,0,1-.61-.38L151.34,2.44A4.38,4.38,0,0,0,147.42,0h-5.89a2.19,2.19,0,0,0-2.19,2.19V19.32h5.79v-14a.68.68,0,0,1,.68-.68h.11a.69.69,0,0,1,.61.38l5.85,11.86a4.39,4.39,0,0,0,3.93,2.44h5.78a2.19,2.19,0,0,0,2.19-2.19V0Z"/><path fill="#FF6720" d="M70.83,13.22a1.47,1.47,0,0,1-1.46,1.46H61.08a1.46,1.46,0,0,1-1.46-1.46V0H53.83V14.94a4.38,4.38,0,0,0,4.38,4.38h14a4.38,4.38,0,0,0,4.38-4.38V0H70.83Z"/><path fill="#FF6720" d="M114.7,2.19V17.13a2.19,2.19,0,0,0,2.19,2.19h18.83V14.68H120.49V12.05H134V7.41H120.49V4.64h15.23V0H116.89a2.19,2.19,0,0,0-2.19,2.19"/><path fill="#FF6720" d="M109.06,0h-5.83A4.05,4.05,0,0,0,99.3,2.44L95.53,13.31,91.91,2.44A4,4,0,0,0,88,0H82.16A2.19,2.19,0,0,0,80,2.19V19.32h5.78v-14a.68.68,0,0,1,.68-.68A.67.67,0,0,1,87,5L92,18.13a2.15,2.15,0,0,0,2,1.19h3.38a2.13,2.13,0,0,0,2-1.21L104.19,5a.69.69,0,0,1,.6-.38h0a.68.68,0,0,1,.68.68v14h5.78V2.19A2.19,2.19,0,0,0,109.06,0"/><path fill="#FF6720" d="M47.06,19.32h6.5L45.34,2.37A4,4,0,0,0,41.75,0H37.61A4,4,0,0,0,34,2.37h0l-8.22,17h6.38l1.89-4h11.1ZM36.27,10.69l2.65-5.58a.78.78,0,0,1,.7-.47.77.77,0,0,1,.7.47L43,10.69Z"/>
</svg>