<svg width="118" height="35" viewBox="0 0 1268 331" fill="none" xmlns="http://www.w3.org/2000/svg">
<path d="M381.867 2.53337L378.667 5.06671L378.267 66.9334C377.867 133.2 378.133 137.733 384.133 140C388.133 141.6 393.333 139.733 395.2 136.133C396.133 134.533 396.667 122.8 396.667 106.133V78.6667H404.533H412.4L427.6 98.2667C436 109.2 446.4 122.667 450.533 128.267C458.8 139.733 461.6 141.867 466.667 140.533C470.533 139.6 472.667 136.4 472.667 131.333C472.667 127.733 458.667 108.4 437.733 82.9334C432 76 427.6 70 427.867 69.4667C428.133 69.0667 438.4 56 450.533 40.6667C470.533 15.3334 472.667 12.2667 472.4 8.00004C471.867 2.26671 466.667 -1.33329 461.467 0.666708C459.467 1.46671 448.933 13.8667 434.933 32L411.733 62L404.267 61.6L396.667 61.0667V33.8667C396.667 6.66671 396.667 6.53338 393.333 3.33337C389.467 -0.666625 386 -0.933292 381.867 2.53337Z" fill="black"/>
<path d="M144.533 4.26666C139.466 7.73333 133.066 19.3333 132.4 26.4C132 30.8 132.133 30.9333 140 33.4667C144.4 34.8 148.133 36 148.266 36C148.4 36 148.933 33.7333 149.466 30.9333C150 28.2667 151.2 24.2667 152.266 22.1333C154.133 18.5333 154.533 18.4 160.4 19.2C171.466 20.6667 182.933 27.4667 195.333 40C210.933 55.7333 217.333 67.2 236.133 112.533C243.066 129.2 252.266 144 255.733 144C256.8 144 258.533 140.8 259.733 136.933C262.266 128.8 262.533 125.067 260.8 123.333C260.133 122.533 254.933 111.333 249.466 98.4C231.2 55.3333 223.866 42.9333 207.466 26.6667C190.8 9.99999 173.466 1.33333 157.333 1.33333C150.933 1.33333 148 1.99999 144.533 4.26666Z" fill="black"/>
<path d="M974.4 25.6001C972.933 27.3334 968.933 32.6668 965.466 37.6001C962 42.6668 958.666 46.6668 958.266 46.6668C957.733 46.6668 954.4 45.7334 950.8 44.6668C936.933 40.5334 920.4 43.3334 911.466 51.4668C908.666 54.0001 904.933 59.2001 903.2 63.0668C900.266 69.4668 900 71.7334 900 91.3334C900 108.533 900.4 113.733 902.266 118.267L904.666 123.867L896 136.133C891.2 142.8 887.333 149.067 887.333 150C887.333 152.4 891.6 157.2 894 157.467C898.933 158 900.533 156.8 907.066 147.333C910.933 141.867 914.666 137.067 915.333 136.667C916 136.267 919.6 136.933 923.333 138.133C928.133 139.733 932.933 140.133 940.4 139.733C952.266 139.067 959.466 135.867 965.733 128.667C973.2 120.267 974.4 115.867 975.066 94.6668C975.466 77.4668 975.333 74.4001 972.8 66.9334L969.866 58.4001L978.133 47.0668C988.933 31.7334 989.6 30.2668 986.8 26.0001C984 21.7334 978.133 21.4668 974.4 25.6001ZM946.8 61.0668C947.733 61.6001 942.8 69.7334 932.8 84.0001L917.333 105.867L916.933 91.3334C916.266 67.2001 920.933 60.0001 937.333 60.0001C941.733 60.0001 946 60.5334 946.8 61.0668ZM955.466 112.533C951.866 120.667 947.466 123.333 937.066 123.333C932.533 123.333 928.133 122.667 927.466 122C926.533 121.067 931.066 113.6 941.733 98.6668L957.333 76.6668L957.733 91.7334C958 104.267 957.6 107.733 955.466 112.533Z" fill="black"/>
<path d="M75.9996 36.9334C50.7996 42.2667 34.2663 58.0001 37.8663 73.3334C38.7996 77.6 42.6663 85.8667 45.733 90.5334C46.7996 92 48.533 91.4667 54.933 87.8667L62.933 83.4667L59.1996 78.1334C54.133 71.2 54.2663 67.8667 59.9996 62.8001C69.9996 54.0001 94.7996 50.1334 116.4 53.8667C130.4 56.2667 141.466 60.0001 172.666 72.5334C194.8 81.3334 209.333 85.2 213.2 83.0667C214.933 82.1334 214.533 80.8 211.2 73.6C208.8 68.6667 206.4 65.3334 205.066 65.3334C203.866 65.3334 193.066 61.4667 181.2 56.6667C148.266 43.4667 135.466 39.0667 123.333 36.8001C109.733 34.1334 88.3996 34.2667 75.9996 36.9334Z" fill="black"/>
<path d="M242.133 42.6667C238.133 44.9334 234.666 46.9334 234.4 47.2001C234 47.4667 235.6 51.3334 237.866 55.8667L242 63.8667L248.666 59.7334C257.466 54.2667 260.266 55.4667 265.866 66.9334C270.933 77.2001 272.666 86.1334 272.666 101.6C272.666 121.467 268.933 134.933 250.8 180.8C245.333 194.533 243.2 202.133 242.533 209.067C242 214.533 242.133 218.667 242.8 218.667C243.466 218.667 247.6 216.667 252 214.267C258 211.067 260.133 209.2 260.533 206.667C260.666 204.8 264 195.867 267.6 186.667C276.533 164.533 284.133 143.067 286.666 133.467C291.866 113.2 291.6 87.2001 286 69.0667C282.533 57.8667 273.466 44.2667 267.333 41.0667C260.133 37.3334 250.8 37.8667 242.133 42.6667Z" fill="black"/>
<path d="M490.267 44.8C485.867 47.8667 486.4 53.7333 491.333 57.3333L495.333 60.1333V113.467C495.333 164.933 495.467 166.8 498 169.333C499.467 170.8 502.133 172 504 172C505.867 172 508.533 170.8 510 169.333C512.4 166.933 512.667 164.933 512.667 151.333C512.667 142.933 512.933 136 513.2 136C513.467 136 516.267 136.933 519.333 138C526 140.4 537.733 140.533 545.333 138.533C548.8 137.6 552.8 134.8 556.8 130.8C565.333 122 567.333 114 567.333 89.8667C567.333 67.3333 565.467 59.7333 558.267 52.1333C549.067 42.4 529.6 39.8667 514.667 46.5333C510.533 48.4 507.867 48.9333 507.6 48C506.933 46 500 42.6667 496.4 42.6667C494.667 42.6667 491.867 43.6 490.267 44.8ZM541.467 60.8C548.667 64.2667 550.4 70.6667 549.733 92.9333C549.333 107.467 548.8 112.267 546.933 115.733C542.8 123.333 532.133 126 522.4 122C512.533 117.867 512.667 118.4 512.667 90.4V65.2L519.733 62C527.733 58.1333 535.067 57.7333 541.467 60.8Z" fill="black"/>
<path d="M588.667 46L585.467 49.3333L588.533 59.0667C591.467 68.1333 609.067 115.333 615.067 130.267L617.867 137.067L614.133 142.8C609.467 149.6 601.6 154.667 595.6 154.667C590.533 154.667 584.667 159.6 584.667 164C584.667 165.467 586 168 587.467 169.467C590 172 591.467 172.267 597.867 171.6C612.4 170.4 623.2 162 631.867 145.467C637.067 135.6 666 55.0667 666 50.6667C666 44.5333 657.333 40.5333 652.267 44.2667C651.067 45.2 645.067 60.4 638.8 78.6667C632.667 96.6667 627.067 111.067 626.533 110.8C625.2 110.267 614.133 81.0667 607.2 60C604.933 53.0667 602.133 46.2667 600.933 44.9333C598 41.6 592.4 42.1333 588.667 46Z" fill="black"/>
<path d="M679.6 44.8C673.6 48.9334 675.467 53.7334 690.8 73.0667C698.533 82.9334 704.533 91.6 704.267 92.4C703.867 93.3334 699.2 99.3334 694 106C678.133 125.867 676.133 129.067 676.533 134.933C676.8 138.267 682.667 141.733 686.533 140.8C688.4 140.4 693.333 135.2 699.333 127.067C715.2 105.733 720.533 100 724.133 100H727.333V118C727.333 134.267 727.6 136.267 730 138.667C733.6 142.267 737.467 142 741.333 138C744.533 134.933 744.667 134.133 744.667 117.333C744.667 100.133 744.667 100 747.733 100C750.533 100 759.467 110.4 775.467 132.267C782.667 142.133 790 143.6 794 135.867C796.533 131.2 794 126.8 773.6 101.6L765.733 91.8667L769.467 86.9334C771.467 84.2667 777.867 76.2667 783.467 69.2C795.867 53.8667 796.933 50.8 792.133 46.1334C790.267 44.1334 787.467 42.6667 786 42.6667C782.667 42.6667 781.2 44.2667 763.6 66.6667C754.933 77.7334 749.6 83.4667 747.6 83.7334C744.667 84.1334 744.667 84 744.667 66.6667C744.667 49.7334 744.533 49.0667 741.2 45.8667C738.667 43.2 737.067 42.6667 734.267 43.3334C727.733 44.9334 727.467 45.8667 727.067 65.0667C726.533 90.4 726 90.2667 706 64.6667C688 41.6 686.133 40.1334 679.6 44.8Z" fill="black"/>
<path d="M817.2 45.4667C814.8 48.1333 814.666 51.2 814.266 90.1333C813.866 137.867 814.133 140 822.666 140C830.533 140 831.333 138 831.333 117.867V100H835.2C838.533 100 840.533 102 850.8 115.467C869.2 139.467 869.6 140 874.8 140C878.133 140 879.866 139.067 881.466 136.533C883.6 133.467 883.6 132.8 881.733 128.933C880.666 126.533 874.4 117.867 867.866 109.6C861.333 101.333 855.466 93.7333 854.8 92.8C854 91.6 857.6 86.1333 866.666 74.6667C873.866 65.6 880.4 56.8 881.333 55.0667C884.533 48.9333 879.866 42.1333 873.2 42.9333C870.133 43.2 866.533 46.9333 854.133 62.6667C841.733 78.5333 838.266 82.1333 835.2 82.4L831.333 82.8V64.9333C831.333 49.3333 831.066 46.8 828.933 44.9333C825.6 41.8667 820.266 42.1333 817.2 45.4667Z" fill="black"/>
<path d="M1008.27 43.8667C1007.47 44.1334 1005.6 45.2001 1004.4 46.4001C1002.27 48.2667 1002 52.1334 1002 91.3334C1002 131.2 1002.13 134.4 1004.4 136.4C1006.53 138.267 1010.27 138.667 1027.87 138.667C1050.13 138.667 1055.33 137.6 1061.73 131.6C1071.6 122.4 1072.27 102.933 1063.2 93.6001L1059.2 89.4667L1062.27 85.3334C1064.8 81.7334 1065.33 79.4667 1065.33 70.8001C1065.33 61.8667 1064.8 59.7334 1061.73 55.0667C1055.87 46.1334 1049.73 44.0001 1028.13 43.6001C1018.13 43.4667 1009.2 43.6001 1008.27 43.8667ZM1045.33 63.3334C1049.47 67.3334 1049.73 74.4001 1046.13 78.8001C1043.87 81.6001 1042.27 82.0001 1031.47 82.4001L1019.33 82.9334V71.4667V60.0001H1030.67C1041.07 60.0001 1042.4 60.2667 1045.33 63.3334ZM1045.33 100.667C1050.8 102.8 1053.2 107.867 1052 114.267C1050.8 121.2 1047.2 122.667 1032.4 122.667H1019.33V110.667V98.6667H1030C1036.4 98.6667 1042.67 99.4667 1045.33 100.667Z" fill="black"/>
<path d="M1116.27 44.7999C1107.6 47.4666 1099.07 55.9999 1095.87 65.4666C1093.87 71.1999 1093.33 76.3999 1093.33 91.3332C1093.47 102.133 1094.13 112.4 1095.07 115.6C1097.47 123.733 1104.4 132 1112 135.867C1117.73 138.933 1120.27 139.333 1131.33 139.333C1147.33 139.333 1154.93 136 1161.6 126.133C1168 116.667 1168.93 111.467 1168.4 88.1332C1168 68.1332 1167.87 67.0666 1164.13 60.3999C1160.13 53.0666 1153.47 47.5999 1145.07 44.5332C1138.4 42.2666 1124.27 42.3999 1116.27 44.7999ZM1143.07 62.6666C1149.87 66.7999 1151.33 71.9999 1151.33 92.2666C1151.33 111.733 1150 116 1142.53 120.933C1137.73 124 1125.6 124 1119.73 120.933C1113.2 117.467 1111.07 112.133 1110.4 96.7999C1109.47 78.3999 1111.33 69.4666 1117.47 64.1332C1121.6 60.3999 1123.07 59.9999 1130.4 59.9999C1136.4 59.9999 1139.87 60.7999 1143.07 62.6666Z" fill="black"/>
<path d="M1216.67 44.6667C1208.27 47.3333 1200.27 54.5333 1196.53 62.9333C1193.6 69.4667 1193.33 71.7333 1193.33 91.3333C1193.33 110.933 1193.6 113.2 1196.53 119.6C1200.27 128 1207.33 134.8 1215.73 138C1224.93 141.467 1244.13 140.267 1254.4 135.6C1263.6 131.467 1266.27 127.2 1262.93 122.133C1259.73 117.333 1256.27 116.8 1249.73 120.133C1241.33 124.4 1225.6 125.2 1219.73 121.467C1214.27 118 1211.07 111.867 1210.8 104.133L1210.67 98L1237.73 97.3333C1259.73 96.8 1265.07 96.2667 1266 94.6667C1267.87 91.7333 1267.6 76.2667 1265.6 68.2667C1261.47 52.5333 1250.13 43.8667 1232.67 43.0667C1226.4 42.8 1220.4 43.4667 1216.67 44.6667ZM1242 61.6C1246.67 64.8 1249.73 71.2 1249.87 78.2667L1250 82.6667H1229.87H1209.73L1210.67 76.2667C1212.53 63.8667 1218.13 58.8 1230.13 58.6667C1235.73 58.6667 1238.67 59.4667 1242 61.6Z" fill="black"/>
<path d="M120.667 65.2C118.8 66.4 112 69.8666 105.333 72.6666C67.5998 88.5333 49.0665 98.5333 34.6665 110.533C15.4665 126.533 0.666504 152.4 0.666504 170C0.799837 180.933 7.8665 190.667 17.8665 193.2C29.5998 196.267 29.9998 196.133 32.7998 187.333C34.1332 182.933 35.3332 178.933 35.3332 178.533C35.3332 178 32.2665 177.333 28.3998 177.067C19.8665 176.133 17.4665 173.6 18.6665 166C19.7332 158.4 26.1332 146 33.8665 136.533C46.6665 120.667 65.3332 109.2 107.333 91.3333C117.2 87.2 126.8 82.8 128.667 81.6C132.8 79.0666 142 70.5333 142 69.2C142 68.4 126.667 62.5333 124.8 62.6666C124.4 62.6666 122.533 63.8666 120.667 65.2Z" fill="black"/>
<path d="M72.9333 115.2C66.6667 118.267 64.4 120.133 63.8667 122.667C63.4667 124.533 60.1333 133.733 56.4 143.333C38.1333 190 34 205.733 34 228.533C34 244.8 36.5333 257.2 42.1333 269.467C50.4 287.2 63.6 295.333 76.1333 290C81.7333 287.733 90 282.533 90 281.2C90 280.8 88.1333 277.067 85.8667 272.933L81.8667 265.467L76.4 269.333C73.3333 271.6 69.8667 273.333 68.6667 273.333C64.5333 273.333 58.2667 264.533 55.0667 254.267C52.4 246.133 52 241.867 52.1333 226.667C52.2667 205.467 53.7333 199.733 68.8 161.2C80.2667 131.733 82.1333 125.2 81.7333 117.2L81.3333 111.067L72.9333 115.2Z" fill="black"/>
<path d="M291.6 141.733C290.267 146.267 289.333 150.4 289.6 150.933C289.867 151.6 292 152 294.133 152C300.8 152 306 155.467 306 160C306 171.333 295.067 189.867 280.533 203.067C269.067 213.6 257.867 220 230.533 232.133C218.8 237.2 205.733 243.067 201.333 245.2C193.467 248.933 182 257.733 182 260C182 260.667 185.867 262.4 190.667 264L199.2 266.8L204.933 263.6C208.133 261.733 216.667 257.733 224 254.667C246.4 245.2 269.2 234 277.6 228.267C295.467 216.133 309.333 200.4 317.867 182.667C322.133 173.6 322.667 171.6 322.667 161.067C322.667 151.6 322.133 148.933 320 145.733C316.933 141.733 305.2 135.333 298.4 134.133C294.267 133.467 294.133 133.6 291.6 141.733Z" fill="black"/>
<path d="M66.1329 188.4C61.7329 200 61.4663 202.533 64.3996 207.733C65.8663 210.533 70.5329 220.8 74.6663 230.667C96.1329 281.6 108.133 299.2 133.066 316.267C143.866 323.6 156.266 328 166.133 328C175.2 328 180.133 325.867 185.2 320C188.8 315.733 193.333 302.4 192.266 299.6C192 298.667 189.066 297.333 185.866 296.4C182.666 295.6 179.066 294.533 177.866 294C176.133 293.333 175.466 294.4 174.8 298.933C174.266 302.133 172.933 306.133 171.733 307.867C170 310.667 169.066 310.933 163.466 310.133C150.133 308.267 131.866 295.467 119.466 279.2C112 269.333 100.8 247.333 90.6663 222.667C82.5329 202.8 79.9996 197.867 74.3996 190.933C69.1996 184.533 67.7329 184.133 66.1329 188.4Z" fill="black"/>
<path d="M395.067 207.867L391.6 210.667L391.067 240.267C390.533 265.067 390 271.2 387.867 277.333C385.333 284.533 385.2 284.667 379.733 285.067C370.933 285.733 370 288 370 308.267C370 323.6 370.267 325.6 372.667 328C375.333 330.667 380.133 331.467 382.8 329.6C386 327.467 387.333 322.4 387.333 312.133V301.333H420.667H454V312.133C454 322.4 455.333 327.467 458.533 329.6C461.2 331.467 466 330.667 468.667 328C471.067 325.6 471.333 323.6 471.333 308.267C471.333 288.4 470.267 285.733 462.267 285.067L457.333 284.667L456.667 247.067C456.133 218.8 455.6 209.067 454.267 207.733C452.933 206.4 445.467 205.867 425.6 205.6C400 205.2 398.4 205.333 395.067 207.867ZM439.333 254V285.333H422.267C412.8 285.333 404.8 284.933 404.4 284.533C404 284.133 404.533 280.667 405.6 276.933C406.8 272.667 407.867 260.933 408.267 246.267L409.067 222.667H424.133H439.333V254Z" fill="black"/>
<path d="M492.8 207.867C490.133 210.533 490 211.733 490 253.333C490 294.8 490.133 296.133 492.8 298.8C495.467 301.467 496.667 301.6 517.067 301.067C536.267 300.667 539.333 300.267 544.267 297.733C552.4 293.333 555.867 287.733 556.4 277.733C557.2 266.267 555.867 260.933 551.333 256L547.333 251.733L550 247.333C555.467 238.533 554.8 223.333 548.533 215.467C542.667 208 536.533 206.133 515.2 205.6C496.667 205.067 495.467 205.2 492.8 207.867ZM528.933 222.667C532.533 223.733 534.133 225.067 535.2 228.267C537.333 234.4 537.067 236.8 533.6 240.8C530.667 244.133 529.467 244.533 518.933 245.067L507.333 245.733V233.467V221.333H515.733C520.267 221.333 526.133 222 528.933 222.667ZM535.867 264.133C538.667 266.4 539.333 268 539.333 273.067C539.333 276.533 538.8 280 538.267 280.8C536.133 284.133 530.933 285.333 519.467 285.333H507.333V273.333V261.333H519.867C530.4 261.333 532.8 261.733 535.867 264.133Z" fill="black"/>
<path d="M586.8 207.867C584.8 210 584.533 214.933 584.533 254C584.533 302.133 584.667 302.667 592.933 302.667C598.133 302.667 602 298.4 602 292.667C602 288.4 604.267 285.467 621.733 265.867L641.333 243.733L641.733 270.8C642 293.6 642.4 298.267 644.267 300.267C647.067 303.467 653.333 303.333 656.667 300C659.2 297.467 659.333 295.6 659.333 254C659.333 212.4 659.2 210.533 656.667 208C650.933 202.267 642 206.133 642 214.533C642 218.133 638.933 222.133 622.4 240.933L602.667 263.067L602 236.133C601.333 211.333 601.067 208.933 598.8 207.2C595.2 204.533 589.467 204.8 586.8 207.867Z" fill="black"/>
<path d="M681.6 207.733C677.066 212.667 678.8 216.667 691.866 233.2C698.8 241.867 705.2 250.133 706 251.6C707.466 254 706.533 255.733 696.666 268C681.066 287.6 679.066 290.933 679.6 296.133C679.866 299.6 680.8 300.933 683.466 301.867C688.933 303.733 692.933 301.867 697.866 294.933C700.4 291.467 706.933 282.8 712.533 275.6C720.933 264.8 723.2 262.667 726.266 262.667H730V280.4C730 296 730.266 298.533 732.4 300.4C735.466 303.2 740.666 303.333 744.133 300.8C746.4 299.067 746.666 296.933 747.066 280.8C747.6 262.8 747.6 262.667 750.666 262.667C753.733 262.667 759.2 268.933 778.533 294.267C784.133 301.733 785.333 302.667 789.333 302.667C792.8 302.667 794.533 301.867 796.133 299.333C799.733 293.867 798.933 292.267 774.266 260.8L768.4 253.467L778.933 240.4C799.333 215.333 800.4 213.067 795.2 207.867C793.333 206 791.2 205.333 788.266 205.6C784.666 206 782.133 208.4 769.066 225.333C757.733 239.867 753.2 244.8 750.666 245.067L747.333 245.467V228.933C747.333 214.133 747.066 212 744.533 208.8C741.466 204.933 737.333 204.4 732.933 207.467C730.133 209.333 730 210.4 730 227.467V245.333L726.4 245.2C723.2 245.2 720.8 242.8 711.333 230.267C694.933 208.8 691.6 205.333 687.333 205.333C685.333 205.333 682.8 206.4 681.6 207.733Z" fill="black"/>
<path d="M836 207.467C828.933 210 821.467 217.467 817.733 225.867C814.933 232 814.667 234.667 814.667 252.667C814.667 275.067 816.267 282.4 823.333 290.933C831.067 300.267 846.133 304.267 862.667 301.467C880.667 298.267 889.2 291.067 884.133 283.333C881.467 279.2 877.733 279.067 869.333 282.8C861.867 286.133 848.533 286.8 842.4 284.133C836.8 281.867 833.067 275.733 831.867 266.933L830.933 260H857.6C890.533 260 889.333 260.667 888.4 242.4C887.067 217.067 875.467 205.333 852 205.467C846.133 205.467 838.933 206.4 836 207.467ZM863.333 223.733C867.6 226.933 871.333 234.133 871.333 239.6V244H851.333C829.067 244 829.867 244.533 832.8 234.4C835.6 224.133 843.2 219.467 854.667 220.8C857.6 221.067 861.467 222.533 863.333 223.733Z" fill="black"/>
<path d="M916.133 208.267C914.267 210.8 914 217.467 914 254V296.933L917.067 299.733C920.667 303.067 924.4 303.467 928.133 300.8C930.4 299.067 930.8 296.667 931.333 279.067L932 259.333L949.067 258.933L966 258.533V277.067C966 293.867 966.267 296 968.8 299.2C971.867 303.067 976 303.6 980.4 300.533C983.333 298.533 983.333 298.533 983.333 254.133C983.333 212.8 983.2 209.6 980.933 207.6C979.6 206.267 976.533 205.333 974.267 205.333C967.333 205.333 966 208.933 966 226.933V242.533L949.2 242.933C940 243.2 932.133 243.067 931.867 242.8C931.6 242.533 931.333 234.933 931.333 226C931.333 212 931.067 209.467 928.933 207.6C925.333 204.267 918.533 204.667 916.133 208.267Z" fill="black"/>
<path d="M1016.27 207.733C1014.27 210 1014 215.067 1014 253.733C1014 295.6 1014.13 297.467 1016.67 300C1020 303.333 1026.27 303.467 1029.07 300.267C1030.13 299.067 1031.33 295.733 1031.6 292.933C1032 288.667 1034.67 284.933 1051.33 266.133L1070.67 244.4L1071.33 271.6C1072 296.667 1072.27 299.067 1074.53 300.8C1078.13 303.333 1083.87 303.2 1086.4 300.267C1088.4 298 1088.67 292.8 1088.67 253.733C1088.67 212.8 1088.53 209.6 1086.27 207.6C1083.07 204.8 1076.13 204.667 1073.87 207.467C1072.93 208.667 1071.87 211.867 1071.47 214.8C1070.8 219.2 1067.6 223.467 1052 241.2C1041.73 252.933 1032.93 262.533 1032.4 262.533C1031.73 262.667 1031.33 250.8 1031.33 236.267C1031.33 212.267 1031.07 209.6 1028.93 207.6C1025.6 204.667 1018.93 204.8 1016.27 207.733Z" fill="black"/>
<path d="M1138.13 207.2C1131.87 209.467 1123.73 216.667 1120.67 222.533C1116.67 230.533 1114.93 244.133 1115.73 260.533C1116.4 273.733 1116.93 276.133 1120.93 284C1124.67 291.2 1126.53 293.333 1132.53 296.933C1141.33 302.267 1151.2 303.6 1163.87 301.467C1181.87 298.4 1190.53 291.2 1185.47 283.467C1183.2 279.867 1177.2 278.667 1174.53 281.333C1173.87 282 1169.47 283.6 1164.8 284.8C1147.87 289.067 1136.53 283.6 1134 269.467C1133.33 265.6 1133.07 261.867 1133.47 261.2C1133.87 260.533 1145.73 260 1159.87 260C1190.8 260 1190 260.4 1190 245.2C1190 230.533 1187.07 222 1179.47 214.667C1175.87 211.2 1171.07 207.867 1167.87 206.933C1160.93 204.933 1144.13 205.067 1138.13 207.2ZM1164.67 223.333C1169.07 225.6 1172.67 232.667 1172.67 239.2V244H1152.53C1134.13 244 1132.53 243.867 1133.07 241.6C1133.47 240.4 1134.13 237.2 1134.53 234.667C1135.73 228.267 1139.07 224.267 1145.33 222C1151.2 219.733 1158.93 220.4 1164.67 223.333Z" fill="black"/>
<path d="M269.733 241.2C261.333 246 261.333 246 264.533 250.4C269.866 257.867 270.4 261.067 266.8 264.667C262 269.467 254.266 272.933 242.933 275.2C218.266 280.267 198.933 276.267 148.4 255.6C130.133 248 117.6 244.933 111.866 246.533L108.8 247.333L113.066 255.2L117.333 262.933L130.666 268C138 270.8 153.6 276.8 165.333 281.333C193.6 292.4 206.933 295.067 228.666 294.267C242.133 293.867 247.333 293.067 256 290.133C280.933 281.6 291.066 268.8 285.466 252.533C283.333 246.4 278 237.2 276.666 237.467C276.266 237.6 273.2 239.2 269.733 241.2Z" fill="black"/>
</svg>
