<svg width="104" height="31" viewBox="0 0 104 31" fill="none" xmlns="http://www.w3.org/2000/svg">
<path d="M16.9968 15.0646C17.7299 12.0707 18.463 9.02503 19.1961 5.92751C20.8252 5.726 22.4543 5.53601 24.0833 5.35752C22.4543 10.9998 20.8252 16.4464 19.1961 21.6972C17.7707 21.9966 16.3452 22.3017 14.9198 22.6126C14.1052 20.0391 13.2907 17.4021 12.4761 14.7019C11.6616 17.7246 10.8471 20.73 10.0325 23.7181C8.60199 24.052 7.17401 24.3831 5.74856 24.7112C4.11948 19.5468 2.49041 14.2672 0.861328 8.87246C2.49041 8.5961 4.11948 8.31686 5.74856 8.03474C6.48165 10.948 7.21473 13.8296 7.94782 16.6796C8.74199 13.5648 9.53872 10.4241 10.338 7.25749C11.7583 7.02719 13.1838 6.79977 14.6143 6.57523C15.4034 9.46548 16.1976 12.2953 16.9968 15.0646Z" fill="#8166EF"/>
<path d="M38.3785 18.8904C36.8283 19.9268 34.9116 20.2809 32.636 20.1859C30.3527 20.2722 28.436 19.8232 26.8935 18.6659C25.3204 17.4309 24.5415 15.7123 24.5415 13.4842C24.5415 11.1956 25.3204 9.11427 26.8935 7.28339C28.4589 5.43525 30.3756 4.45072 32.636 4.41618C34.8963 4.44209 36.8054 5.44389 38.3785 7.34385C39.9439 9.24381 40.7305 11.4115 40.7305 13.7778C40.7305 16.0664 39.9439 17.7677 38.3785 18.8904ZM29.1233 13.1474C29.1233 14.1837 29.4593 14.9955 30.1313 15.6001C30.8033 16.196 31.6356 16.4809 32.636 16.4896C33.6287 16.5155 34.4687 16.2564 35.1407 15.6778C35.8127 15.1078 36.1487 14.3046 36.1487 13.2596C36.1487 12.1974 35.8127 11.2733 35.1407 10.5392C34.4687 9.79653 33.6287 9.4079 32.636 9.39926C31.6356 9.39063 30.8033 9.76198 30.1313 10.4788C29.4593 11.1956 29.1233 12.0938 29.1233 13.1474Z" fill="#8166EF"/>
<path d="M56.3925 24.2881C54.8424 25.713 52.9333 25.9289 50.65 25.0308C48.3668 24.1412 46.4577 22.6213 44.9075 20.5227C43.3421 18.5191 42.5555 16.4119 42.5555 14.0714C42.5555 11.6619 43.3421 9.66699 44.9075 8.0952C46.473 6.50614 48.3897 5.8757 50.65 6.23842C52.9104 6.61841 54.8271 7.87066 56.3925 10.0124C57.958 12.1888 58.7445 14.6932 58.7445 17.5259C58.7445 20.4363 57.958 22.7335 56.3925 24.2881ZM47.1373 14.961C47.1373 16.1355 47.4733 17.1718 48.1453 18.0873C48.8173 19.0113 49.6497 19.6245 50.65 19.9095C51.6504 20.2031 52.4827 20.0477 53.1547 19.4259C53.8267 18.7868 54.1627 17.8282 54.1627 16.5328C54.1627 15.2546 53.8267 14.1319 53.1547 13.1906C52.4827 12.2578 51.6504 11.7051 50.65 11.5151C49.6497 11.3338 48.8173 11.5669 48.1453 12.2233C47.4733 12.8624 47.1373 13.7778 47.1373 14.961Z" fill="#8166EF"/>
<path d="M70.4586 8.63928C72.4593 8.66519 74.1775 9.61517 75.6207 11.5151C77.0487 13.4151 77.7589 15.8332 77.7589 18.8214C77.7589 21.9304 77.0487 24.694 75.6207 27.0862C74.2004 29.5734 72.4746 30.912 70.4586 30.9552C68.4884 30.817 66.9688 29.6166 65.9074 27.5266C65.9074 28.2521 65.9074 28.9804 65.9074 29.7116C64.3801 29.3374 62.8528 28.9199 61.3256 28.4593C61.3307 18.8732 61.3332 9.81092 61.3332 1.2726C62.8605 1.47411 64.3877 1.66123 65.915 1.83396C65.915 4.69542 65.915 7.64036 65.915 10.6688C66.9764 9.23518 68.4961 8.57019 70.4586 8.63928ZM66.9154 22.5695C67.6103 23.6144 68.4884 24.1844 69.5422 24.2535C70.6037 24.3053 71.4666 23.8303 72.1386 22.8545C72.8335 21.8872 73.1771 20.6177 73.1771 19.0373C73.1771 17.5 72.8335 16.2823 72.1386 15.4014C71.4666 14.5119 70.6037 14.0628 69.5422 14.0196C68.4884 13.9678 67.6103 14.3478 66.9154 15.1682C66.2434 15.9887 65.9074 17.1546 65.9074 18.6832C65.9074 20.2463 66.2434 21.5418 66.9154 22.5695Z" fill="#8166EF"/>
<path d="M84.937 27.993C83.4098 28.3557 81.8825 28.7069 80.3552 29.0466C80.3552 19.0344 80.3552 9.52593 80.3552 0.521254C81.8825 0.354288 83.4098 0.184443 84.937 0.0117188C84.937 9.07397 84.937 18.4011 84.937 27.993Z" fill="#8166EF"/>
<path d="M103.234 18.5882C99.6191 18.6458 96.0046 18.876 92.3901 19.2791C92.8941 20.894 94.1159 21.5331 96.0555 21.2395C97.2926 21.0754 98.27 20.5486 98.9802 19.6504C100.207 20.301 101.431 20.943 102.653 21.5763C101.164 23.7526 98.942 25.2035 95.9944 25.8426C93.4439 26.4471 91.3897 26.0239 89.8243 24.4953C88.297 22.8976 87.5334 20.609 87.5334 17.7073C87.5334 14.8746 88.2817 12.4306 89.7937 10.3838C91.321 8.36292 93.2759 7.26612 95.6584 7.12795C97.8729 7.06749 99.7209 8.05202 101.187 10.0211C102.669 11.9728 103.417 14.2528 103.417 16.7487C103.417 17.4223 103.348 18.0355 103.234 18.5882ZM92.2984 15.2028C94.4875 15.0243 96.6766 14.8948 98.8657 14.8142C98.4151 12.966 97.3384 12.0247 95.6278 12.0765C93.8562 12.1801 92.7413 13.2337 92.2984 15.2028Z" fill="#8166EF"/>
</svg>
